<?xml version="1.0" encoding="utf-8"?>
<!-- Generator: Adobe Illustrator 22.0.1, SVG Export Plug-In . SVG Version: 6.00 Build 0)  -->
<svg version="1.1" id="Layer_1" xmlns="http://www.w3.org/2000/svg" xmlns:xlink="http://www.w3.org/1999/xlink" x="0px" y="0px"
	 viewBox="0 0 16 16" style="enable-background:new 0 0 16 16;" xml:space="preserve">
<style type="text/css">
	.st0{fill:#FFFFFF;}
</style>
<path class="st0" d="M6,14.5C6,15.3,5.3,16,4.5,16S3,15.3,3,14.5S3.7,13,4.5,13S6,13.7,6,14.5z"/>
<path class="st0" d="M16,14.5c0,0.8-0.7,1.5-1.5,1.5S13,15.3,13,14.5s0.7-1.5,1.5-1.5S16,13.7,16,14.5z"/>
<path class="st0" d="M16,8V2H4c0-0.6-0.4-1-1-1H0v1h2l0.8,6.4C2.3,8.8,2,9.4,2,10c0,1.1,0.9,2,2,2h12v-1H4c-0.6,0-1-0.4-1-1
	c0,0,0,0,0,0L16,8z"/>
</svg>
