<?xml version="1.0" encoding="utf-8"?>
<!-- Generator: Adobe Illustrator 22.0.1, SVG Export Plug-In . SVG Version: 6.00 Build 0)  -->
<svg version="1.1" id="Layer_1" xmlns="http://www.w3.org/2000/svg" xmlns:xlink="http://www.w3.org/1999/xlink" x="0px" y="0px"
	 viewBox="0 0 16 16" style="enable-background:new 0 0 16 16;" xml:space="preserve">
<style type="text/css">
	.st0{fill:#FFFFFF;}
</style>
<path class="st0" d="M14.5,0h-13C0.7,0,0,0.7,0,1.5v13C0,15.3,0.7,16,1.5,16h13c0.8,0,1.5-0.7,1.5-1.5v-13C16,0.7,15.3,0,14.5,0z
	 M11,2.5C11,2.2,11.2,2,11.5,2h2C13.8,2,14,2.2,14,2.5v2C14,4.8,13.8,5,13.5,5h-2C11.2,5,11,4.8,11,4.5V2.5z M8,5c1.7,0,3,1.3,3,3
	s-1.3,3-3,3S5,9.7,5,8S6.3,5,8,5z M14,13.5L14,13.5c0,0.3-0.2,0.5-0.5,0.5h-11C2.2,14,2,13.8,2,13.5l0,0V7h1.1C3,7.3,3,7.7,3,8
	c0,2.8,2.2,5,5,5s5-2.2,5-5c0-0.3,0-0.7-0.1-1H14V13.5z"/>
</svg>
