<svg id="Layer_1" enable-background="new 0 0 511.98 511.98" height="512" viewBox="0 0 511.98 511.98" width="512" xmlns="http://www.w3.org/2000/svg"><path d="m359.727 72.308h-17.102c-6.643-25.071-29.528-43.605-56.66-43.605h-4.395c-16.537-18.332-39.724-28.703-64.715-28.703-23.321 0-45.245 9.082-61.735 25.572-13.354 13.354-21.849 30.271-24.597 48.608-21.249 5.97-36.874 25.518-36.874 48.645v1.239c0 25.51 19.01 46.65 43.604 50.033v74.041c0 30.779 6.369 60.634 18.931 88.734 10.828 24.224 16.319 49.96 16.319 76.493v98.615h177.876v-98.615c0-26.533 5.49-52.269 16.318-76.493 11.921-26.668 18.254-54.917 18.87-84.035 19.007-6.285 32.764-24.208 32.764-45.295v-76.63c.001-32.314-26.289-58.604-58.604-58.604zm-20.418 252.322c-12.561 28.101-18.93 57.956-18.93 88.735v68.615h-117.876v-68.615c0-30.78-6.369-60.635-18.931-88.735-10.829-24.225-16.319-49.96-16.319-76.492v-73.556h155.671v32.96c0 21.041 13.7 38.932 32.643 45.254-.605 24.886-6.064 49.031-16.258 71.834zm49.023-117.088c0 9.762-7.942 17.704-17.704 17.704s-17.704-7.942-17.704-17.704v-62.96h-208.758c-11.313 0-20.518-9.204-20.518-20.518v-1.239c0-11.313 9.208-20.518 20.526-20.518h15.375v-15c0-15.308 5.96-29.699 16.784-40.522 10.823-10.824 25.215-16.785 40.522-16.785 18.101 0 34.763 8.295 45.715 22.758l4.501 5.944h18.894c15.773 0 28.605 12.832 28.605 28.605v15h45.156c15.773 0 28.605 12.832 28.605 28.604v76.631z"/></svg>