<svg height="512pt" viewBox="-66 0 512 512" width="512pt" xmlns="http://www.w3.org/2000/svg"><path d="m379.324219 395.171875-59.363281-154.171875h-20.296876v-241h-220v241h-20.300781l-59.363281 154.171875 54.664062-32.800781v149.628906h270v-149.628906zm-109.660157-154.171875h-65.058593v-90.5h65.058593zm0-120.5h-65.058593v-90.5h65.058593zm-95.058593-90.5v90.5h-64.941407v-90.5zm-64.941407 120.5h64.941407v90.5h-64.941407zm-29.703124 120.5h219.402343l20.636719 53.589844-50.335938-30.203125-80 48-80-48-50.339843 30.203125zm214.703124 73.371094v137.628906h-210v-137.628906l25-15 80 48 80-48zm0 0"/></svg>