<?xml version="1.0" encoding="iso-8859-1"?>
<!-- Generator: Adobe Illustrator 19.0.0, SVG Export Plug-In . SVG Version: 6.00 Build 0)  -->
<svg xmlns="http://www.w3.org/2000/svg" xmlns:xlink="http://www.w3.org/1999/xlink" version="1.1" id="Layer_1" x="0px" y="0px" viewBox="0 0 480 480" style="enable-background:new 0 0 480 480;" xml:space="preserve" width="512" height="512">
<g>
	<path d="M375,208.144h-0.326c-3.931-17.241-9.187-34.173-15.747-50.571l-3.771-9.429H64.844l-3.771,9.429   c-23.64,59.101-30.224,122.959-19.235,185.436c-3.046,1.624-5.992,3.357-8.798,5.228C11.734,362.441,0,381.941,0,403.144   s11.734,40.703,33.04,54.907c19.436,12.957,44.991,20.093,71.96,20.093h218.493l11.251-18.75   c7.942-13.237,14.962-27.037,21.031-41.25H375c57.897,0,105-47.103,105-105S432.897,208.144,375,208.144z M334.665,178.144   c3.574,9.87,6.619,19.885,9.149,30H76.119c2.557-10.11,5.623-20.122,9.211-30H334.665z M105,358.144   c23.413,0,44.717,6.842,58.59,17.298c-22.928-3.288-46.752,1.782-66.91,15.221c-19.719,13.146-44.534,14.648-65.427,4.528   C37.722,374.436,68.857,358.144,105,358.144z M46.41,430.846c4.507,0.646,9.048,0.974,13.59,0.974   c18.563,0,37.125-5.398,53.32-16.195c19.719-13.146,44.534-14.648,65.427-4.528c-6.469,20.755-37.604,37.047-73.747,37.047   C81.587,448.144,60.283,441.302,46.41,430.846z M309.02,443.958l-2.512,4.186H189.399c13.385-12.799,20.601-28.375,20.601-45   c0-21.203-11.734-40.703-33.04-54.907c-19.436-12.957-44.991-20.093-71.96-20.093c-11.93,0-23.58,1.402-34.55,4.081   c-4.93-31.345-5.015-63.014-0.356-94.081H349.76C360.161,308.683,346.21,381.973,309.02,443.958z M375,388.144h-8.03   c7.995-24.928,13.148-50.768,15.236-76.826c1.946-24.283,1.231-48.803-2.05-72.976C419.113,241.002,450,273.524,450,313.144   C450,354.5,416.355,388.144,375,388.144z"/>
	<path d="M125.123,76.933c4.314,3.775,6.789,9.229,6.789,14.961s-2.475,11.186-6.789,14.961l19.755,22.577   c10.826-9.472,17.034-23.155,17.034-37.539s-6.208-28.066-17.034-37.539c-4.314-3.775-6.789-9.229-6.789-14.961   s2.475-11.186,6.789-14.961L125.123,1.856c-10.826,9.472-17.034,23.155-17.034,37.539S114.297,67.46,125.123,76.933z"/>
	<path d="M200.123,76.933c4.314,3.775,6.789,9.229,6.789,14.961s-2.475,11.186-6.789,14.961l19.755,22.577   c10.826-9.472,17.034-23.155,17.034-37.539s-6.208-28.066-17.034-37.539c-4.314-3.775-6.789-9.229-6.789-14.961   s2.475-11.186,6.789-14.961L200.123,1.856c-10.826,9.472-17.034,23.155-17.034,37.539S189.297,67.46,200.123,76.933z"/>
	<path d="M275.123,76.933c4.314,3.775,6.789,9.229,6.789,14.961s-2.475,11.186-6.789,14.961l19.755,22.577   c10.826-9.472,17.034-23.155,17.034-37.539s-6.208-28.066-17.034-37.539c-4.314-3.775-6.789-9.229-6.789-14.961   s2.475-11.186,6.789-14.961L275.123,1.856c-10.826,9.472-17.034,23.155-17.034,37.539S264.297,67.46,275.123,76.933z"/>
</g>















</svg>
