<svg height="511pt" viewBox="1 -21 511.99998 511" width="511pt" xmlns="http://www.w3.org/2000/svg"><path d="m457.84375 238.917969c-.003906-.003907-.003906-.007813-.007812-.007813 12.222656-28.550781 18.664062-61.40625 18.664062-95.773437 0-27.980469-4.277344-54.957031-12.457031-79.429688h21.390625v-30.007812h-105.523438v-33.199219h-157.074218v33.199219h-105.523438v30.007812h21.390625c-8.183594 24.472657-12.460937 51.449219-12.460937 79.429688 0 35.445312 6.847656 69.28125 19.832031 98.441406-.003907.003906-.007813.007813-.011719.011719-5.960938 6.8125-11.503906 14.042968-16.585938 21.667968l-58.625-58.617187-70.851562 70.859375 94.636719 94.636719c-.117188 2.980469-.1875 5.953125-.1875 8.914062 0 28.40625 5.621093 55.964844 16.691406 81.914063l3.894531 9.113281h376.378906l3.890626-9.113281c11.074218-25.949219 16.695312-53.507813 16.695312-81.914063 0-53.875-20.515625-103.0625-54.15625-140.132812zm-156.476562-68.640625c-7.75 0-14.0625-6.308594-14.0625-14.0625 0-7.761719 6.3125-14.0625 14.0625-14.0625 7.761718 0 14.066406 6.300781 14.066406 14.0625 0 7.753906-6.304688 14.0625-14.066406 14.0625zm1.863281 30.011718c46.792969 0 89.445312 18.074219 121.34375 47.601563h-242.851563c32.542969-30.160156 75.683594-47.601563 121.507813-47.601563zm-50.386719-166.589843v-3.191407h97.058594v27.007813h-97.058594zm-30.007812 30.007812v23.816407h157.074218v-23.816407h52.207032c9.421874 23.769531 14.375 50.925781 14.375 79.429688 0 26.183593-4.179688 51.222656-12.160157 73.550781-26.355469-21.316406-57.976562-36.367188-92.582031-42.839844 2.371094-5.402344 3.691406-11.371094 3.691406-17.632812 0-24.308594-19.765625-44.074219-44.070312-44.074219-24.300782 0-44.074219 19.765625-44.074219 44.074219 0 6.519531 1.429687 12.722656 3.992187 18.304687-34.085937 6.960938-65.683593 22.300781-92.066406 44.402344-8.511718-22.882813-12.972656-48.730469-12.972656-75.785156 0-28.503907 4.957031-55.660157 14.378906-79.429688zm-151.984376 183.375 16.105469 16.105469-28.417969 28.417969v-.003907l-16.105468-16.101562zm400.457032 192.984375h-336.167969c-7.09375-19.503906-10.683594-39.980468-10.683594-61.015625 0-4.523437.179688-9.113281.519531-13.636719l.511719-6.871093-45.726562-45.722657 28.421875-28.417968 27.917968 27.917968 9.5625-17.773437c3.097657-5.773437 6.492188-11.324219 10.140626-16.648437h.003906 294.742187.003907c19.824218 28.789062 31.4375 63.640624 31.4375 101.152343 0 21.035157-3.59375 41.511719-10.683594 61.015625zm0 0"/></svg>