<svg height="512pt" viewBox="-81 0 512 512" width="512pt" xmlns="http://www.w3.org/2000/svg"><path d="m137.472656 146.40625v-146.40625h-94.777344v146.40625c-26.210937 16.285156-42.695312 45.394531-42.695312 76.613281v288.980469h180.171875v-288.980469c0-31.21875-16.484375-60.328125-42.699219-76.613281zm-30-116.40625v27.816406h-34.777344v-27.816406zm-43.296875 138.792969 8.519531-4.082031v-76.894532h34.777344v76.898438l8.519532 4.078125c20.761718 9.941406 34.179687 31.230469 34.179687 54.226562v33.734375h-120.171875v-33.734375c0-23 13.414062-44.285156 34.175781-54.226562zm85.996094 117.960937v82.421875h-120.171875v-82.421875zm-120.171875 195.246094v-82.824219h120.171875v82.824219zm0 0"/><path d="m207.855469 216.292969v137.703125c0 33.773437 23.847656 62.070312 55.582031 68.964844v59.039062h-18.53125v30h67.066406v-30h-18.53125v-59.039062c31.734375-6.898438 55.585938-35.191407 55.585938-68.964844v-137.703125zm111.167969 30v27.707031h-81.167969v-27.707031zm-40.585938 148.289062c-22.378906 0-40.582031-18.207031-40.582031-40.585937v-49.996094h81.167969v49.996094c0 22.378906-18.207032 40.585937-40.585938 40.585937zm0 0"/></svg>